<mxfile host="app.diagrams.net" modified="2022-01-24T10:30:08.571Z" agent="5.0 (Windows NT 10.0; Win64; x64) AppleWebKit/537.36 (KHTML, like Gecko) Chrome/97.0.4692.99 Safari/537.36" etag="UH8gpu4qNG1tIb91HQ_9" version="16.4.5" type="github">
  <diagram id="_24MAdu8RFch5qd4rgsQ" name="Page-1">
    <mxGraphModel dx="1038" dy="571" grid="1" gridSize="10" guides="1" tooltips="1" connect="1" arrows="1" fold="1" page="1" pageScale="1" pageWidth="827" pageHeight="1169" math="0" shadow="0">
      <root>
        <mxCell id="0" />
        <mxCell id="1" parent="0" />
        <mxCell id="050Vc2ALEDwJVLeZ9z4r-1" value="" style="rounded=0;whiteSpace=wrap;html=1;fillColor=#d5e8d4;strokeColor=#82b366;" vertex="1" parent="1">
          <mxGeometry x="160" y="200" width="120" height="60" as="geometry" />
        </mxCell>
        <mxCell id="050Vc2ALEDwJVLeZ9z4r-2" value="Amazon S3" style="sketch=0;outlineConnect=0;fontColor=#232F3E;gradientColor=none;strokeColor=#ffffff;fillColor=#232F3E;dashed=0;verticalLabelPosition=middle;verticalAlign=bottom;align=center;html=1;whiteSpace=wrap;fontSize=10;fontStyle=1;spacing=3;shape=mxgraph.aws4.productIcon;prIcon=mxgraph.aws4.s3;" vertex="1" parent="1">
          <mxGeometry x="560" y="680" width="80" height="100" as="geometry" />
        </mxCell>
        <mxCell id="050Vc2ALEDwJVLeZ9z4r-3" value="Amazon DynamoDB" style="sketch=0;outlineConnect=0;fontColor=#232F3E;gradientColor=none;strokeColor=#ffffff;fillColor=#232F3E;dashed=0;verticalLabelPosition=middle;verticalAlign=bottom;align=center;html=1;whiteSpace=wrap;fontSize=10;fontStyle=1;spacing=3;shape=mxgraph.aws4.productIcon;prIcon=mxgraph.aws4.dynamodb;" vertex="1" parent="1">
          <mxGeometry x="175" y="550" width="80" height="110" as="geometry" />
        </mxCell>
        <mxCell id="050Vc2ALEDwJVLeZ9z4r-4" value="AWS Elastic Beanstalk" style="sketch=0;outlineConnect=0;fontColor=#232F3E;gradientColor=none;strokeColor=#ffffff;fillColor=#232F3E;dashed=0;verticalLabelPosition=middle;verticalAlign=bottom;align=center;html=1;whiteSpace=wrap;fontSize=10;fontStyle=1;spacing=3;shape=mxgraph.aws4.productIcon;prIcon=mxgraph.aws4.elastic_beanstalk;" vertex="1" parent="1">
          <mxGeometry x="310" y="675" width="80" height="110" as="geometry" />
        </mxCell>
        <mxCell id="050Vc2ALEDwJVLeZ9z4r-5" value="Amazon Cognito" style="sketch=0;outlineConnect=0;fontColor=#232F3E;gradientColor=none;strokeColor=#ffffff;fillColor=#232F3E;dashed=0;verticalLabelPosition=middle;verticalAlign=bottom;align=center;html=1;whiteSpace=wrap;fontSize=10;fontStyle=1;spacing=3;shape=mxgraph.aws4.productIcon;prIcon=mxgraph.aws4.cognito;" vertex="1" parent="1">
          <mxGeometry x="560" y="460" width="80" height="110" as="geometry" />
        </mxCell>
        <mxCell id="050Vc2ALEDwJVLeZ9z4r-6" value="" style="endArrow=classic;startArrow=classic;html=1;rounded=0;" edge="1" parent="1" source="050Vc2ALEDwJVLeZ9z4r-5" target="050Vc2ALEDwJVLeZ9z4r-2">
          <mxGeometry width="50" height="50" relative="1" as="geometry">
            <mxPoint x="630" y="590" as="sourcePoint" />
            <mxPoint x="600" y="620" as="targetPoint" />
            <Array as="points">
              <mxPoint x="600" y="600" />
            </Array>
          </mxGeometry>
        </mxCell>
        <mxCell id="050Vc2ALEDwJVLeZ9z4r-7" value="" style="endArrow=classic;startArrow=none;html=1;rounded=0;" edge="1" parent="1" source="050Vc2ALEDwJVLeZ9z4r-12" target="050Vc2ALEDwJVLeZ9z4r-2">
          <mxGeometry width="50" height="50" relative="1" as="geometry">
            <mxPoint x="390" y="920" as="sourcePoint" />
            <mxPoint x="580" y="830" as="targetPoint" />
            <Array as="points" />
          </mxGeometry>
        </mxCell>
        <mxCell id="050Vc2ALEDwJVLeZ9z4r-11" value="" style="endArrow=classic;startArrow=none;html=1;rounded=0;" edge="1" parent="1" source="050Vc2ALEDwJVLeZ9z4r-14" target="050Vc2ALEDwJVLeZ9z4r-3">
          <mxGeometry width="50" height="50" relative="1" as="geometry">
            <mxPoint x="170" y="855" as="sourcePoint" />
            <mxPoint x="210" y="805" as="targetPoint" />
          </mxGeometry>
        </mxCell>
        <mxCell id="050Vc2ALEDwJVLeZ9z4r-12" value="fetch data&lt;br&gt;" style="text;html=1;resizable=0;autosize=1;align=center;verticalAlign=middle;points=[];fillColor=none;strokeColor=none;rounded=0;" vertex="1" parent="1">
          <mxGeometry x="470" y="720" width="70" height="20" as="geometry" />
        </mxCell>
        <mxCell id="050Vc2ALEDwJVLeZ9z4r-13" value="" style="endArrow=none;startArrow=classic;html=1;rounded=0;" edge="1" parent="1" source="050Vc2ALEDwJVLeZ9z4r-4" target="050Vc2ALEDwJVLeZ9z4r-12">
          <mxGeometry width="50" height="50" relative="1" as="geometry">
            <mxPoint x="370" y="832.1428571428571" as="sourcePoint" />
            <mxPoint x="580" y="830" as="targetPoint" />
            <Array as="points" />
          </mxGeometry>
        </mxCell>
        <mxCell id="050Vc2ALEDwJVLeZ9z4r-14" value="save data" style="text;html=1;resizable=0;autosize=1;align=center;verticalAlign=middle;points=[];fillColor=none;strokeColor=none;rounded=0;" vertex="1" parent="1">
          <mxGeometry x="180" y="720" width="70" height="20" as="geometry" />
        </mxCell>
        <mxCell id="050Vc2ALEDwJVLeZ9z4r-15" value="" style="endArrow=none;startArrow=classic;html=1;rounded=0;" edge="1" parent="1" source="050Vc2ALEDwJVLeZ9z4r-4" target="050Vc2ALEDwJVLeZ9z4r-14">
          <mxGeometry width="50" height="50" relative="1" as="geometry">
            <mxPoint x="290" y="801.086956521739" as="sourcePoint" />
            <mxPoint x="140" y="673.9130434782608" as="targetPoint" />
          </mxGeometry>
        </mxCell>
        <mxCell id="050Vc2ALEDwJVLeZ9z4r-16" value="" style="sketch=0;html=1;dashed=0;whitespace=wrap;fillColor=#2875E2;strokeColor=#ffffff;points=[[0.005,0.63,0],[0.1,0.2,0],[0.9,0.2,0],[0.5,0,0],[0.995,0.63,0],[0.72,0.99,0],[0.5,1,0],[0.28,0.99,0]];shape=mxgraph.kubernetes.icon;prIcon=user" vertex="1" parent="1">
          <mxGeometry x="760" y="680" width="120" height="80" as="geometry" />
        </mxCell>
        <mxCell id="050Vc2ALEDwJVLeZ9z4r-17" value="" style="endArrow=classic;startArrow=classic;html=1;rounded=0;entryX=0.005;entryY=0.63;entryDx=0;entryDy=0;entryPerimeter=0;" edge="1" parent="1" source="050Vc2ALEDwJVLeZ9z4r-2" target="050Vc2ALEDwJVLeZ9z4r-16">
          <mxGeometry width="50" height="50" relative="1" as="geometry">
            <mxPoint x="390" y="710" as="sourcePoint" />
            <mxPoint x="440" y="660" as="targetPoint" />
            <Array as="points" />
          </mxGeometry>
        </mxCell>
        <mxCell id="050Vc2ALEDwJVLeZ9z4r-18" value="user" style="text;html=1;resizable=0;autosize=1;align=center;verticalAlign=middle;points=[];fillColor=none;strokeColor=none;rounded=0;" vertex="1" parent="1">
          <mxGeometry x="800" y="765" width="40" height="20" as="geometry" />
        </mxCell>
      </root>
    </mxGraphModel>
  </diagram>
</mxfile>
